<?xml version="1.0" encoding="iso-8859-1"?>
<!-- Generator: Adobe Illustrator 19.0.0, SVG Export Plug-In . SVG Version: 6.00 Build 0)  -->
<svg version="1.1" id="Layer_1" xmlns="http://www.w3.org/2000/svg" xmlns:xlink="http://www.w3.org/1999/xlink" x="0px" y="0px"
	 viewBox="0 0 511.999 511.999" style="enable-background:new 0 0 511.999 511.999;" xml:space="preserve">
<path style="fill:#A26234;" d="M255.999,331.443v-75.449v-75.449v-64.663h137.833c18.441,39.862,29.227,88.114,29.227,140.111
	s-10.786,100.26-29.227,140.122H255.999L255.999,331.443L255.999,331.443z"/>
<g>
	<path style="fill:#A58763;" d="M393.832,115.883H255.999H118.166c6.295-13.615,13.485-26.258,21.443-37.724H372.39
		C380.347,89.625,387.538,102.268,393.832,115.883z"/>
	<path style="fill:#A58763;" d="M255.999,396.117h137.833c-6.295,13.615-13.485,26.247-21.443,37.724H139.608
		c-7.957-11.477-15.148-24.109-21.443-37.724H255.999z"/>
</g>
<g>
	<path style="fill:#704324;" d="M372.39,78.159H139.608c30.091-43.36,71.13-70.061,116.391-70.061S342.299,34.798,372.39,78.159z"/>
	<path style="fill:#704324;" d="M139.608,433.841H372.39c-30.091,43.36-71.13,70.061-116.391,70.061
		S169.699,477.202,139.608,433.841z"/>
</g>
<path style="fill:#A26234;" d="M255.999,331.443v64.673H118.166c-18.441-39.862-29.227-88.124-29.227-140.122
	s10.786-100.249,29.227-140.111h137.833v64.663v75.449V331.443z"/>
<path d="M401.182,112.485c-6.472-13.998-13.922-27.1-22.14-38.942C346.131,26.118,302.433,0,255.998,0
	c-46.434,0-90.131,26.118-123.043,73.542c-8.219,11.843-15.668,24.945-22.139,38.941c-19.609,42.39-29.975,92.014-29.975,143.511
	c0,51.503,10.366,101.132,29.975,143.52c6.455,13.963,13.903,27.064,22.139,38.942c32.911,47.424,76.609,73.542,123.044,73.542
	c46.435,0,90.133-26.118,123.046-73.545c8.235-11.877,15.682-24.978,22.137-38.938c19.61-42.39,29.977-92.019,29.977-143.522
	C431.157,204.498,420.791,154.873,401.182,112.485z M255.998,16.195c36.722,0,71.835,19.009,100.179,53.866H155.821
	C184.164,35.204,219.276,16.195,255.998,16.195z M143.904,86.256h224.189c4.514,6.779,8.763,13.982,12.713,21.529H131.191
	C135.142,100.238,139.39,93.036,143.904,86.256z M97.036,255.995c0-47.272,9.129-92.779,26.393-132.014h124.472v48.467h-35.014
	v16.195h35.014v59.253h-35.014v16.195h35.014v59.253h-35.014v16.195h35.014v48.478H123.428
	C106.165,348.784,97.036,303.274,97.036,255.995z M255.998,495.805c-36.722,0-71.836-19.01-100.178-53.866h200.356
	C327.834,476.796,292.721,495.805,255.998,495.805z M368.091,425.744H143.907c-4.52-6.791-8.768-13.994-12.714-21.529h249.614
	C376.859,411.75,372.611,418.952,368.091,425.744z M388.569,388.019H264.096v-48.478h35.015v-16.195h-35.015v-59.253h35.015v-16.195
	h-35.015v-59.253h35.015v-16.195h-35.015v-48.467h124.473c17.263,39.234,26.392,84.741,26.392,132.014
	C414.962,303.274,405.833,348.783,388.569,388.019z"/>
<g>
</g>
<g>
</g>
<g>
</g>
<g>
</g>
<g>
</g>
<g>
</g>
<g>
</g>
<g>
</g>
<g>
</g>
<g>
</g>
<g>
</g>
<g>
</g>
<g>
</g>
<g>
</g>
<g>
</g>
</svg>
