<?xml version="1.0" encoding="utf-8"?>
<!-- Generator: Adobe Illustrator 24.3.0, SVG Export Plug-In . SVG Version: 6.00 Build 0)  -->
<svg version="1.1" id="Layer_1" xmlns="http://www.w3.org/2000/svg" xmlns:xlink="http://www.w3.org/1999/xlink" x="0px" y="0px"
	 viewBox="0 0 504.1 416.9" style="enable-background:new 0 0 504.1 416.9;" xml:space="preserve">
<style type="text/css">
	.st0{fill:#00008B;}
</style>
<g>
	<g>
		<path class="st0" d="M492.3,259.7H364.1c-5.8-19.7-11.4-37.3-15.9-51.8c14.7-19.3,39.6-29.6,74-29.6c1.2,0,2.3-0.7,3-1.7
			c0.7-0.9,1.1-2.2,0.8-3.4c-1.3-6.8-3.1-13.7-5.2-20.5c4.9-3.1,6.9-9.3,4.6-14.7c-1.9-4.3-6.1-7.1-10.8-7.1c-0.5,0-1,0.1-1.5,0.2
			C379.3,51.3,302,0,215.1,0C96.5,0,0,96.5,0,215.1c0,62.4,27.1,121.7,74.4,162.6c1,0.9,2.4,1.2,3.6,0.8c2.8-0.8,5.5-1.4,8.3-2
			c1.5-0.3,3-0.6,4.5-0.9c1.1-0.2,2.2-0.4,3.2-0.6c2-0.3,4.1-0.6,6.1-0.8c0.3,0,0.7-0.1,1-0.1c9.8-1,19.8-1,29.9,0.1
			c0.3,0,0.6,0.1,0.9,0.1c6.8,0.8,13.8,2,20.7,3.7c1.2,0.3,2.4,0.6,3.6,0.9c1.7,0.5,3.4,1,5.2,1.5s3.6,1.1,5.4,1.7
			c1.3,0.4,2.7,0.9,4,1.3c3.1,1.1,6.1,2.3,9.2,3.6c1,0.4,2.1,0.9,3.1,1.4c2.4,1,4.8,2.1,7.2,3.3c1,0.5,2,1,3,1.5
			c3.3,1.6,6.6,3.4,10,5.2c11.1,6.1,22,10.8,32.7,13.8c10.7,3.1,21.2,4.7,31.1,4.7c11.5,0,22.3-2.1,32.1-6.3
			c0.3-0.1,0.6-0.2,0.9-0.4c1.9-0.8,3.8-1.8,5.6-2.8c0.5-0.2,0.9-0.5,1.4-0.7c1.8-1,3.5-2.1,5.2-3.3c0.2-0.1,0.3-0.2,0.4-0.3
			c0.5-0.4,1-0.8,1.5-1.2c1.5-1.1,3-2.3,4.4-3.6c0.4-0.3,0.7-0.6,1.1-0.9c1.5-1.4,2.9-2.9,4.3-4.4c0.3-0.3,0.6-0.6,0.9-0.9
			c0.2-0.2,0.4-0.5,0.6-0.8c1.1-1.4,2.2-2.8,3.2-4.2c0.5-0.7,0.9-1.4,1.4-2.1c0.7-1,1.3-2,1.9-3.1c0.4-0.7,0.8-1.4,1.2-2.1
			c0.8-1.6,1.6-3.2,2.3-4.9c0.3-0.6,0.5-1.3,0.7-1.9c0.6-1.5,1.1-2.9,1.5-4.4c0.1-0.4,0.3-0.9,0.4-1.3c0.5-1.9,1-3.9,1.3-5.8
			c0.1-0.5,0.2-1,0.2-1.4c0.3-1.9,0.5-3.9,0.7-5.9c0-0.1,0-0.3,0-0.4c0.1-2.1,0.1-4.2,0-6.3c0-0.5,0-1-0.1-1.5
			c-0.1-2.1-0.3-3.4-0.6-5.5c-0.5-3.2-1.1-6-1.8-10h24.1c0.7,0,1.4,4.4,2.1,6.4c16.5,50.2,54.7,68.5,76.5,68.5h51.9
			c6.5,0,11.7-7.1,11.7-13.6v-122C504,263.3,498.8,259.7,492.3,259.7z M331.5,260.4c0.4-7,1.2-13.6,2.4-19.7
			c2.7,8.5,5.5,17.4,8.3,26.4L331.5,260.4z M334,307c-0.8-7.9-1.5-12.3-1.9-17.5l21.1,13.6l1.1,3.9H334z M480.4,381.8h-40
			c-14.1,0-41-15.8-53.7-51.2h93.6L480.4,381.8L480.4,381.8z M480.4,307H379.1c-2.4-7.9-4.9-15.8-7.5-23.6h108.8L480.4,307
			L480.4,307z"/>
	</g>
</g>
</svg>
